<svg version="1.1" id="Layer_1" xmlns="http://www.w3.org/2000/svg" xmlns:xlink="http://www.w3.org/1999/xlink" x="0px" y="0px"
	 width="100%" viewBox="0 0 256 256" enable-background="new 0 0 256 256" xml:space="preserve">
<path fill="#000000" opacity="1.000000" stroke="none" 
	d="
M107.000000,257.000000 
	C71.698952,257.000000 36.397907,257.000000 1.048431,257.000000 
	C1.048431,171.776962 1.048431,86.553879 1.048431,1.000000 
	C39.686932,1.000000 78.374809,1.000000 117.537170,1.367474 
	C116.426590,2.505511 114.864716,3.328894 113.252342,4.037335 
	C106.866005,6.843366 100.449440,9.593843 96.447723,16.112640 
	C91.224052,17.716961 86.262596,19.068722 81.567551,21.051359 
	C67.932358,26.809250 55.315331,34.214771 44.586891,45.073856 
	C39.529373,50.625050 34.472134,55.811783 30.084187,61.513580 
	C14.575471,81.665955 7.147813,104.787186 6.094769,129.999603 
	C5.828258,136.380508 6.009556,142.928635 7.156355,149.185242 
	C8.880127,158.589630 11.636627,167.804733 13.974291,177.482849 
	C16.619917,183.587265 19.245293,189.309158 22.021206,195.352325 
	C26.945648,202.442703 31.133261,209.743240 36.654873,215.834534 
	C42.418404,222.192719 49.466721,227.386261 56.092705,233.404053 
	C60.802959,236.516953 65.373871,239.314758 70.118652,242.420334 
	C81.564812,248.614136 93.267845,253.246017 105.938263,255.144562 
	C106.375038,255.210007 106.649750,256.357056 107.000000,257.000000 
z"/>
<path fill="#000000" opacity="1.000000" stroke="none" 
	d="
M158.000000,1.000000 
	C190.968658,1.000000 223.937317,1.000000 256.953003,1.000000 
	C256.953003,86.220932 256.953003,171.441910 256.953003,257.000000 
	C221.979828,257.000000 186.958572,257.000000 151.133148,256.680969 
	C151.308517,255.908783 152.255386,255.357971 153.272675,255.017715 
	C162.495148,251.932816 171.729904,248.884720 181.318817,245.807251 
	C188.467102,241.544724 195.257645,237.300812 202.402283,233.024124 
	C205.536423,230.795624 208.467514,228.764435 211.069839,226.375153 
	C221.315857,216.968002 230.017212,206.298630 236.959808,193.786530 
	C239.406708,187.989365 241.727890,182.542969 244.390396,176.917847 
	C249.931732,161.285339 252.921783,145.452545 251.901169,129.112350 
	C251.476593,122.314484 250.270355,115.532959 248.986053,108.827034 
	C244.148132,83.565849 232.003082,62.348339 212.973236,44.636322 
	C205.317719,38.784275 198.035629,32.876671 190.188812,27.850775 
	C185.558716,24.885189 180.034027,23.316317 174.654236,20.899670 
	C169.017822,16.402840 163.638809,12.125652 158.417496,7.973852 
	C162.190430,6.252191 159.698120,3.608202 158.000000,1.000000 
z"/>
<path fill="#9589E8" opacity="1.000000" stroke="none" 
	d="
M202.048187,233.056885 
	C195.257645,237.300812 188.467102,241.544724 181.323502,245.349670 
	C180.974350,236.446335 181.017548,227.981781 180.968109,219.517746 
	C180.936127,214.041199 178.296936,211.218262 172.818161,211.083145 
	C166.349380,210.923630 159.871445,210.939804 153.401627,211.076263 
	C147.917297,211.191925 145.983932,213.236343 145.970001,218.729691 
	C145.937668,231.486359 145.984970,244.243210 146.000000,257.000000 
	C140.311966,257.000000 134.623917,257.000000 128.461456,256.531372 
	C128.014771,230.099899 128.042526,204.137070 128.419617,178.143631 
	C131.481659,176.355301 134.194321,174.597580 137.078979,173.141327 
	C141.892532,178.847839 146.396881,184.379425 151.223373,189.613983 
	C154.498581,193.166092 159.894852,193.014709 161.760025,189.016144 
	C166.233505,179.425949 170.074799,169.540833 174.539429,159.861450 
	C182.182755,162.317459 189.569885,164.394379 196.705551,167.127838 
	C206.280167,170.795609 215.660339,174.970993 224.828979,179.103790 
	C214.663864,186.487686 206.020065,194.975906 203.633377,207.345474 
	C202.020111,215.706619 202.502930,224.472198 202.048187,233.056885 
z"/>
<path fill="#7E6DD1" opacity="1.000000" stroke="none" 
	d="
M128.070267,178.174255 
	C128.042526,204.137070 128.014771,230.099899 127.993515,256.531372 
	C121.312355,257.000000 114.624710,257.000000 107.468536,257.000000 
	C106.649750,256.357056 106.375038,255.210007 105.938263,255.144562 
	C93.267845,253.246017 81.564812,248.614136 70.133621,241.944885 
	C69.986275,230.219330 69.890785,219.275528 70.036217,208.334930 
	C70.222351,194.332458 79.046265,185.108810 93.306122,184.236328 
	C93.898399,185.032516 94.275986,185.581390 94.587738,186.165421 
	C98.561829,193.610291 103.240562,194.155258 108.696037,187.726868 
	C112.873146,182.804840 116.961800,177.807770 121.416092,172.947220 
	C123.851669,174.758331 125.960968,176.466293 128.070267,178.174255 
z"/>
<path fill="#57425E" opacity="1.000000" stroke="none" 
	d="
M157.531357,1.000000 
	C159.698120,3.608202 162.190430,6.252191 158.417496,7.973852 
	C163.638809,12.125652 169.017822,16.402840 174.737167,21.230602 
	C177.751831,26.543648 180.721985,31.172916 182.955750,36.133762 
	C183.856949,38.135147 183.971985,41.264202 183.032501,43.191715 
	C177.975800,53.566406 176.201752,64.643028 174.757690,75.973282 
	C173.253174,76.369759 172.110397,76.720009 170.715134,76.807037 
	C167.075912,68.741913 166.156326,60.575897 165.499680,52.106735 
	C164.639496,41.012711 158.586792,36.493683 147.429443,36.865494 
	C143.676483,36.990562 139.971985,38.194942 136.213516,38.633175 
	C132.319458,39.087223 128.386826,39.210339 124.241127,39.333115 
	C123.671295,39.065166 123.331406,38.942307 122.974106,38.442757 
	C117.247795,25.003437 120.273193,14.010859 130.735901,4.684325 
	C131.766464,3.765682 132.258179,2.242557 133.000000,1.000001 
	C141.020905,1.000000 149.041809,1.000000 157.531357,1.000000 
z"/>
<path fill="#47324C" opacity="1.000000" stroke="none" 
	d="
M132.533875,1.000001 
	C132.258179,2.242557 131.766464,3.765682 130.735901,4.684325 
	C120.273193,14.010859 117.247795,25.003437 122.583023,38.419540 
	C120.284370,38.264923 118.381905,37.638363 116.430817,37.267731 
	C102.480545,34.617706 93.937767,39.333916 92.536606,51.791473 
	C91.613373,59.999809 91.309654,68.171738 87.512970,76.034180 
	C85.783188,76.130096 84.418678,76.025993 83.031097,75.500412 
	C80.825928,64.705490 79.007866,54.235733 76.300301,44.001297 
	C75.043243,39.249710 75.479294,35.403336 78.634369,32.050018 
	C81.100899,29.428509 83.813095,26.456657 87.021339,25.251196 
	C91.796410,23.457016 94.837189,20.560434 96.831627,16.148277 
	C100.449440,9.593843 106.866005,6.843366 113.252342,4.037335 
	C114.864716,3.328894 116.426590,2.505511 118.005829,1.367474 
	C122.689255,1.000000 127.378510,1.000000 132.533875,1.000001 
z"/>
<path fill="#B5B0F7" opacity="1.000000" stroke="none" 
	d="
M146.416656,257.000000 
	C145.984970,244.243210 145.937668,231.486359 145.970001,218.729691 
	C145.983932,213.236343 147.917297,211.191925 153.401627,211.076263 
	C159.871445,210.939804 166.349380,210.923630 172.818161,211.083145 
	C178.296936,211.218262 180.936127,214.041199 180.968109,219.517746 
	C181.017548,227.981781 180.974350,236.446335 180.965759,245.368256 
	C171.729904,248.884720 162.495148,251.932816 153.272675,255.017715 
	C152.255386,255.357971 151.308517,255.908783 150.664490,256.680969 
	C149.611115,257.000000 148.222214,257.000000 146.416656,257.000000 
z"/>
<path fill="#FFDD40" opacity="1.000000" stroke="none" 
	d="
M13.954042,177.100311 
	C11.636627,167.804733 8.880127,158.589630 7.156355,149.185242 
	C6.009556,142.928635 5.828258,136.380508 6.094769,129.999603 
	C7.147813,104.787186 14.575471,81.665955 30.084187,61.513580 
	C34.472134,55.811783 39.529373,50.625050 44.885124,45.240406 
	C49.216297,48.575851 53.317413,51.540646 56.590740,55.238247 
	C63.740650,63.314907 69.073189,72.414223 65.727249,83.729881 
	C62.820541,93.560059 63.958195,102.717972 68.070602,111.831825 
	C69.708694,115.462151 71.155846,119.192566 72.459076,122.957329 
	C75.667145,132.224701 73.875092,138.683044 65.564110,144.114365 
	C59.208206,148.268021 52.272873,151.572815 45.454159,154.972092 
	C33.824135,160.769897 22.306339,166.663651 13.954042,177.100311 
z"/>
<path fill="#FEC73A" opacity="1.000000" stroke="none" 
	d="
M13.974291,177.482849 
	C22.306339,166.663651 33.824135,160.769897 45.454159,154.972092 
	C52.272873,151.572815 59.208206,148.268021 65.564110,144.114365 
	C73.875092,138.683044 75.667145,132.224701 72.459076,122.957329 
	C71.155846,119.192566 69.708694,115.462151 68.070602,111.831825 
	C63.958195,102.717972 62.820541,93.560059 65.727249,83.729881 
	C69.073189,72.414223 63.740650,63.314907 56.590740,55.238247 
	C53.317413,51.540646 49.216297,48.575851 45.192360,45.112167 
	C55.315331,34.214771 67.932358,26.809250 81.567551,21.051359 
	C86.262596,19.068722 91.224052,17.716961 96.447723,16.112640 
	C94.837189,20.560434 91.796410,23.457016 87.021339,25.251196 
	C83.813095,26.456657 81.100899,29.428509 78.634369,32.050018 
	C75.479294,35.403336 75.043243,39.249710 76.300301,44.001297 
	C79.007866,54.235733 80.825928,64.705490 82.657501,75.539001 
	C77.543823,77.141891 76.407143,80.506401 77.469841,84.693382 
	C78.642357,89.313080 80.207695,93.839256 81.739578,98.359520 
	C82.895668,101.770912 85.057564,104.058594 89.239227,104.193939 
	C89.898766,107.306152 89.793121,110.316887 90.878120,112.809311 
	C94.429649,120.967812 98.414452,128.937698 102.174294,137.389343 
	C101.766472,140.111984 101.417030,142.425385 100.691452,144.735443 
	C93.605042,148.379715 86.865219,151.994965 83.526291,159.834702 
	C72.951996,163.294006 62.660385,166.430832 52.556118,170.085602 
	C46.220119,172.377365 40.165691,175.447586 33.664188,178.244614 
	C26.724817,181.972290 24.500341,188.640762 21.870670,195.031036 
	C19.245293,189.309158 16.619917,183.587265 13.974291,177.482849 
z"/>
<path fill="#7255CE" opacity="1.000000" stroke="none" 
	d="
M33.984932,178.168549 
	C40.165691,175.447586 46.220119,172.377365 52.556118,170.085602 
	C62.660385,166.430832 72.951996,163.294006 83.567245,160.236649 
	C86.706032,167.042419 89.441940,173.549683 92.219688,180.391205 
	C92.527954,181.818756 92.794395,182.912048 93.060837,184.005356 
	C79.046265,185.108810 70.222351,194.332458 70.036217,208.334930 
	C69.890785,219.275528 69.986275,230.219330 69.959747,241.637146 
	C65.373871,239.314758 60.802959,236.516953 56.103455,232.930481 
	C55.982510,228.311386 55.895382,224.477997 56.014259,220.651031 
	C56.520370,204.358109 49.414703,191.862823 36.970852,181.931992 
	C35.751186,180.958649 34.969769,179.436142 33.984932,178.168549 
z"/>
<path fill="#7E6DD0" opacity="1.000000" stroke="none" 
	d="
M33.664192,178.244629 
	C34.969769,179.436142 35.751186,180.958649 36.970852,181.931992 
	C49.414703,191.862823 56.520370,204.358109 56.014259,220.651031 
	C55.895382,224.477997 55.982510,228.311386 55.964111,232.615387 
	C49.466721,227.386261 42.418404,222.192719 36.654873,215.834534 
	C31.133261,209.743240 26.945648,202.442703 22.021206,195.352325 
	C24.500341,188.640762 26.724817,181.972290 33.664192,178.244629 
z"/>
<path fill="#FFDD40" opacity="1.000000" stroke="none" 
	d="
M213.109283,44.951389 
	C232.003082,62.348339 244.148132,83.565849 248.986053,108.827034 
	C250.270355,115.532959 251.476593,122.314484 251.901169,129.112350 
	C252.921783,145.452545 249.931732,161.285339 244.225800,176.620880 
	C237.533188,171.529724 231.778534,165.845398 225.052444,161.760666 
	C216.275452,156.430435 206.544083,152.697937 197.560242,147.675400 
	C186.285233,141.371979 180.436188,134.249527 186.350693,120.398918 
	C187.198776,118.412865 187.885315,116.352501 188.818161,114.408859 
	C193.651169,104.338890 195.929077,94.055847 192.035278,83.066658 
	C189.878540,76.979851 191.725555,71.184891 194.216354,65.713661 
	C198.262360,56.826324 205.287201,50.487843 213.109283,44.951389 
z"/>
<path fill="#FEC83A" opacity="1.000000" stroke="none" 
	d="
M212.973236,44.636322 
	C205.287201,50.487843 198.262360,56.826324 194.216354,65.713661 
	C191.725555,71.184891 189.878540,76.979851 192.035278,83.066658 
	C195.929077,94.055847 193.651169,104.338890 188.818161,114.408859 
	C187.885315,116.352501 187.198776,118.412865 186.350693,120.398918 
	C180.436188,134.249527 186.285233,141.371979 197.560242,147.675400 
	C206.544083,152.697937 216.275452,156.430435 225.052444,161.760666 
	C231.778534,165.845398 237.533188,171.529724 243.884491,176.799591 
	C241.727890,182.542969 239.406708,187.989365 236.620697,193.694672 
	C235.349625,192.385132 234.758163,190.649918 233.695206,189.280762 
	C230.949219,185.743759 227.995026,182.368378 225.123993,178.928452 
	C215.660339,174.970993 206.280167,170.795609 196.705551,167.127838 
	C189.569885,164.394379 182.182755,162.317459 174.507034,159.508362 
	C169.819092,154.856506 165.653809,150.506317 161.157379,146.530716 
	C160.050919,145.552414 157.865036,145.794952 156.158081,145.034912 
	C155.741089,142.355057 155.341385,140.116562 155.034836,137.553833 
	C162.663956,127.308098 167.540039,116.290024 169.271912,103.809158 
	C171.822083,102.072472 174.891159,100.783791 175.989502,98.533295 
	C178.121918,94.163979 179.305496,89.297081 180.585526,84.556236 
	C181.798721,80.062965 179.919174,77.332848 175.119431,75.927063 
	C176.201752,64.643028 177.975800,53.566406 183.032501,43.191715 
	C183.971985,41.264202 183.856949,38.135147 182.955750,36.133762 
	C180.721985,31.172916 177.751831,26.543648 174.994583,21.450247 
	C180.034027,23.316317 185.558716,24.885189 190.188812,27.850775 
	C198.035629,32.876671 205.317719,38.784275 212.973236,44.636322 
z"/>
<path fill="#B5B0F6" opacity="1.000000" stroke="none" 
	d="
M224.828979,179.103790 
	C227.995026,182.368378 230.949219,185.743759 233.695206,189.280762 
	C234.758163,190.649918 235.349625,192.385132 236.494995,194.045441 
	C230.017212,206.298630 221.315857,216.968002 211.069839,226.375153 
	C208.467514,228.764435 205.536423,230.795624 202.402283,233.024109 
	C202.502930,224.472198 202.020111,215.706619 203.633377,207.345474 
	C206.020065,194.975906 214.663864,186.487686 224.828979,179.103790 
z"/>
<path fill="#FFAA7B" opacity="1.000000" stroke="none" 
	d="
M154.941681,137.878052 
	C155.341385,140.116562 155.741089,142.355057 156.177948,145.397003 
	C154.186966,155.556931 149.046097,162.817642 141.416199,168.479828 
	C139.751434,169.715286 138.401779,171.375351 136.906998,172.839874 
	C134.194321,174.597580 131.481659,176.355301 128.419617,178.143631 
	C125.960968,176.466293 123.851669,174.758331 121.334045,172.632782 
	C119.520248,170.878708 118.114769,169.542236 117.019882,168.019897 
	C120.358902,163.564148 123.621590,159.435989 126.324059,154.968887 
	C127.839157,152.464478 127.208008,150.443405 123.553696,149.801086 
	C117.016312,148.652039 111.428291,145.521103 106.907715,140.508011 
	C105.623970,139.084412 103.805771,138.142776 102.232674,136.980103 
	C98.414452,128.937698 94.429649,120.967812 90.878120,112.809311 
	C89.793121,110.316887 89.898766,107.306152 89.238556,103.753052 
	C88.733925,99.509888 88.322121,96.051155 88.194984,92.581978 
	C87.990532,87.002998 87.974106,81.417130 87.878242,75.834167 
	C91.309654,68.171738 91.613373,59.999809 92.536606,51.791473 
	C93.937767,39.333916 102.480545,34.617706 116.430817,37.267731 
	C118.381905,37.638363 120.284370,38.264923 122.600426,38.796230 
	C123.331406,38.942307 123.671295,39.065166 123.926735,39.571560 
	C121.990959,43.219894 119.144913,46.296497 118.484596,49.786633 
	C116.846687,58.443897 118.193680,67.661278 113.199211,75.700157 
	C112.588539,76.683067 112.888527,78.323082 112.988945,79.641632 
	C113.631096,88.072998 114.174164,96.516518 115.053513,104.924271 
	C116.805504,121.675529 124.359962,135.213699 137.952255,145.300842 
	C140.577179,147.248856 143.039185,147.391159 145.643295,145.234711 
	C148.686523,142.714584 151.837463,140.324524 154.941681,137.878052 
z"/>
<path fill="#B5B0F6" opacity="1.000000" stroke="none" 
	d="
M137.078979,173.141327 
	C138.401779,171.375351 139.751434,169.715286 141.416199,168.479828 
	C149.046097,162.817642 154.186966,155.556931 156.195251,145.838348 
	C157.865036,145.794952 160.050919,145.552414 161.157379,146.530716 
	C165.653809,150.506317 169.819092,154.856506 174.138855,159.421661 
	C170.074799,169.540833 166.233505,179.425949 161.760025,189.016144 
	C159.894852,193.014709 154.498581,193.166092 151.223373,189.613983 
	C146.396881,184.379425 141.892532,178.847839 137.078979,173.141327 
z"/>
<path fill="#9589E7" opacity="1.000000" stroke="none" 
	d="
M116.709297,168.205750 
	C118.114769,169.542236 119.520248,170.878708 121.007767,172.529633 
	C116.961800,177.807770 112.873146,182.804840 108.696037,187.726868 
	C103.240562,194.155258 98.561829,193.610291 94.587738,186.165421 
	C94.275986,185.581390 93.898399,185.032516 93.306122,184.236328 
	C92.794395,182.912048 92.527954,181.818756 92.532021,180.264008 
	C96.090080,170.830139 101.863838,165.066101 112.283875,165.083832 
	C113.949966,166.228119 115.329628,167.216934 116.709297,168.205750 
z"/>
<path fill="#FFC7AB" opacity="1.000000" stroke="none" 
	d="
M155.034851,137.553833 
	C151.837463,140.324524 148.686523,142.714584 145.643295,145.234711 
	C143.039185,147.391159 140.577179,147.248856 137.952255,145.300842 
	C124.359962,135.213699 116.805504,121.675529 115.053513,104.924271 
	C114.174164,96.516518 113.631096,88.072998 112.988945,79.641632 
	C112.888527,78.323082 112.588539,76.683067 113.199211,75.700157 
	C118.193680,67.661278 116.846687,58.443897 118.484596,49.786633 
	C119.144913,46.296497 121.990959,43.219894 124.156670,39.716644 
	C128.386826,39.210339 132.319458,39.087223 136.213516,38.633175 
	C139.971985,38.194942 143.676483,36.990562 147.429443,36.865494 
	C158.586792,36.493683 164.639496,41.012711 165.499680,52.106735 
	C166.156326,60.575897 167.075912,68.741913 170.717758,77.258507 
	C170.282028,86.589638 169.591171,95.206093 168.900330,103.822548 
	C167.540039,116.290024 162.663956,127.308098 155.034851,137.553833 
z"/>
<path fill="#FFAB7A" opacity="1.000000" stroke="none" 
	d="
M169.271912,103.809158 
	C169.591171,95.206093 170.282028,86.589638 170.970245,77.521713 
	C172.110397,76.720009 173.253174,76.369759 174.757690,75.973282 
	C179.919174,77.332848 181.798721,80.062965 180.585526,84.556236 
	C179.305496,89.297081 178.121918,94.163979 175.989502,98.533295 
	C174.891159,100.783791 171.822083,102.072472 169.271912,103.809158 
z"/>
<path fill="#FB955F" opacity="1.000000" stroke="none" 
	d="
M87.512970,76.034180 
	C87.974106,81.417130 87.990532,87.002998 88.194984,92.581978 
	C88.322121,96.051155 88.733925,99.509888 89.018639,103.414200 
	C85.057564,104.058594 82.895668,101.770912 81.739578,98.359520 
	C80.207695,93.839256 78.642357,89.313080 77.469841,84.693382 
	C76.407143,80.506401 77.543823,77.141891 82.680588,75.960472 
	C84.418678,76.025993 85.783188,76.130096 87.512970,76.034180 
z"/>
<path fill="#7F6ED0" opacity="1.000000" stroke="none" 
	d="
M111.997444,164.928360 
	C101.863838,165.066101 96.090080,170.830139 92.490189,179.929779 
	C89.441940,173.549683 86.706032,167.042419 83.929161,160.133194 
	C86.865219,151.994965 93.605042,148.379715 100.807709,145.095566 
	C104.865883,151.948792 108.431664,158.438583 111.997444,164.928360 
z"/>
<path fill="#FB9461" opacity="1.000000" stroke="none" 
	d="
M112.283875,165.083832 
	C108.431664,158.438583 104.865883,151.948792 101.183838,145.098907 
	C101.417030,142.425385 101.766472,140.111984 102.174294,137.389343 
	C103.805771,138.142776 105.623970,139.084412 106.907715,140.508011 
	C111.428291,145.521103 117.016312,148.652039 123.553696,149.801086 
	C127.208008,150.443405 127.839157,152.464478 126.324059,154.968887 
	C123.621590,159.435989 120.358902,163.564148 117.019882,168.019897 
	C115.329628,167.216934 113.949966,166.228119 112.283875,165.083832 
z"/>
</svg>